<mxfile host="Electron" agent="Mozilla/5.0 (Windows NT 10.0; Win64; x64) AppleWebKit/537.36 (KHTML, like Gecko) draw.io/26.2.2 Chrome/134.0.6998.178 Electron/35.1.2 Safari/537.36" version="26.2.2">
  <diagram name="Pagina-1" id="c837o7mrXS_2IQaRATMy">
    <mxGraphModel dx="680" dy="400" grid="1" gridSize="10" guides="1" tooltips="1" connect="1" arrows="1" fold="1" page="1" pageScale="1" pageWidth="827" pageHeight="1169" math="1" shadow="0">
      <root>
        <mxCell id="0" />
        <mxCell id="1" parent="0" />
        <mxCell id="ivIVi-NZmF-axiHIunYR-1" value="" style="shape=parallelogram;perimeter=parallelogramPerimeter;whiteSpace=wrap;html=1;fixedSize=1;fillColor=none;" parent="1" vertex="1">
          <mxGeometry x="290" y="310" width="220" height="90" as="geometry" />
        </mxCell>
        <mxCell id="ivIVi-NZmF-axiHIunYR-2" value="" style="endArrow=classic;html=1;rounded=0;exitX=0.5;exitY=1;exitDx=0;exitDy=0;" parent="1" edge="1">
          <mxGeometry width="50" height="50" relative="1" as="geometry">
            <mxPoint x="399.9" y="400" as="sourcePoint" />
            <mxPoint x="399.9" y="440" as="targetPoint" />
          </mxGeometry>
        </mxCell>
        <mxCell id="ivIVi-NZmF-axiHIunYR-4" value="" style="endArrow=none;html=1;rounded=0;entryX=0.5;entryY=0.333;entryDx=0;entryDy=0;entryPerimeter=0;dashed=1;" parent="1" target="ivIVi-NZmF-axiHIunYR-1" edge="1">
          <mxGeometry width="50" height="50" relative="1" as="geometry">
            <mxPoint x="399.9" y="400" as="sourcePoint" />
            <mxPoint x="399.9" y="359.97" as="targetPoint" />
          </mxGeometry>
        </mxCell>
        <mxCell id="ivIVi-NZmF-axiHIunYR-5" value="" style="endArrow=classic;html=1;rounded=0;" parent="1" edge="1">
          <mxGeometry width="50" height="50" relative="1" as="geometry">
            <mxPoint x="350" y="390" as="sourcePoint" />
            <mxPoint x="400" y="340" as="targetPoint" />
          </mxGeometry>
        </mxCell>
        <mxCell id="ivIVi-NZmF-axiHIunYR-6" value="" style="endArrow=classic;html=1;rounded=0;entryX=0.773;entryY=0.556;entryDx=0;entryDy=0;entryPerimeter=0;strokeColor=#009900;" parent="1" target="ivIVi-NZmF-axiHIunYR-1" edge="1">
          <mxGeometry width="50" height="50" relative="1" as="geometry">
            <mxPoint x="400" y="340" as="sourcePoint" />
            <mxPoint x="480" y="340" as="targetPoint" />
          </mxGeometry>
        </mxCell>
        <mxCell id="ivIVi-NZmF-axiHIunYR-7" value="$$\mathbf{p}$$" style="text;html=1;align=center;verticalAlign=middle;resizable=0;points=[];autosize=1;strokeColor=none;fillColor=none;fontColor=#009900;" parent="1" vertex="1">
          <mxGeometry x="385" y="320" width="100" height="30" as="geometry" />
        </mxCell>
        <mxCell id="ivIVi-NZmF-axiHIunYR-8" value="$$\mathbf{r}$$" style="text;html=1;align=center;verticalAlign=middle;resizable=0;points=[];autosize=1;strokeColor=none;fillColor=none;fontColor=#000000;" parent="1" vertex="1">
          <mxGeometry x="312" y="345" width="100" height="30" as="geometry" />
        </mxCell>
        <mxCell id="ivIVi-NZmF-axiHIunYR-9" value="$$\Omega = O$$" style="text;html=1;align=center;verticalAlign=middle;resizable=0;points=[];autosize=1;strokeColor=none;fillColor=none;" parent="1" vertex="1">
          <mxGeometry x="261" y="374" width="120" height="30" as="geometry" />
        </mxCell>
        <mxCell id="ivIVi-NZmF-axiHIunYR-10" value="" style="ellipse;whiteSpace=wrap;html=1;aspect=fixed;strokeColor=none;fillColor=#3399FF;" parent="1" vertex="1">
          <mxGeometry x="345" y="388" width="6" height="6" as="geometry" />
        </mxCell>
        <mxCell id="ivIVi-NZmF-axiHIunYR-11" value="$$\mathbf{L}_{\Omega}$$" style="text;html=1;align=center;verticalAlign=middle;resizable=0;points=[];autosize=1;strokeColor=none;fillColor=none;" parent="1" vertex="1">
          <mxGeometry x="334" y="428" width="160" height="30" as="geometry" />
        </mxCell>
      </root>
    </mxGraphModel>
  </diagram>
</mxfile>
